<svg width="4000.0000000000027" height="4000.0000000000027" xmlns="http://www.w3.org/2000/svg" xmlns:svg="http://www.w3.org/2000/svg" xmlns:xlink="http://www.w3.org/1999/xlink">
 <!-- Created with SVG-edit - https://github.com/SVG-Edit/svgedit-->
 <g class="layer" display="inline">
  <title>Layer 1</title>
  <image height="2705" id="svg_1" width="1416" x="1292" xlink:href="https://gaia-online.eu/img/svglinks/048931-IMG_6701-RC.JPG" y="647.5"/>
 </g>
 <g class="layer">
  <title>Original shape</title>
  <rect fill="#7f7f00" fill-opacity="0.2" height="2635.61521" id="svg_2" opacity="0.5" stroke="#000000" width="1236.82004" x="1382.42682" y="672.80323"/>
  <rect fill="#7f7f00" fill-opacity="0.2" height="0" id="svg_3" stroke="#000000" width="1.67364" x="2619.24686" y="1881.17155"/>
 </g>
 <g class="layer" display="inline">
  <title>Current contour</title>
  <path d="m2534.2119,2545.32714c74.66667,-195.66667 -30.66667,-203.33333 83,-658l-4,-457c-81.47244,-81.14961 -11.46457,-166.15748 -10,-318c1.46457,-151.84252 -47.6378,-129.07874 -189.6378,-91.07874c-142,38 -278.3622,91.07874 -352.3622,-9.92126c-74,-101 -44,-209 -111,-279c-67,-70 -130,76 -155,101c-25,25 -25,45 -74,34c-49,-11 -51,-13 -83,3c-32,16 -41,66 -62,78c-21,12 -54,20 -82,37c-28,17 -38,36 -42,55c-4,19 -17,39 -8,54c9,15 26,37 45,48c19,11 16,26 11,42c-5,16 1,16 -13,30c-14,14 -10,14 -16,20c-6,6 -10.90335,6.08178 -13,23c-2.09665,16.91822 -6.32713,42.35687 -14.3197,53.88104c-7.99257,11.52417 -15.49814,8.83643 -19.15985,28.60595c-3.66171,19.76952 0.20817,14.43123 -12.75837,45.67286c-12.96654,31.24164 -26.68324,60.97769 -22.4907,82.04089c4.19254,21.0632 -0.55762,85.30855 -1.11524,115.9777c-0.55762,30.66915 16.13802,0.59855 23.11536,81.03008c6.97734,80.43153 12.23546,65.41392 -27.03429,70.7689l2.69959,182.64712c8,90 -0.9368,75.37546 7.0632,111.37546c8,36 23.4252,46.7874 27.4252,66.7874c4,20 8.26509,27.11286 -4.73491,41.11286c-13,14 -21.47769,4.34908 -22.69029,16.09974c-1.2126,11.75066 0.32546,17 -1,46c-1.32546,29 2,8 -2,97c-4,89 46,42 61,73c15,31 18,88 20,120c2,32 1.19948,62 3,81c1.80052,19 -5,22 15,70c20,48 18,60 31,77c13,17 6,5 36,57c30,52 26,46 66,91c40,45 132,180 176,229c44,49 101,63 137,100c36,37 87,78 141,47c54,-31 28,-35 55,-53c27,-18 48,-51 74,-73c26,-22 0,-51 -12,-79c-12,-28 -8.48819,-33.22572 -16,-60c-7.51181,-26.77428 4.03675,-63.4357 30.94751,-73.02362c26.91076,-9.58793 24.44882,-55.45932 29.38845,-55.92389c4.93963,-0.46456 30.98425,33.85565 35.98425,38.85565c5,5 17.31759,19.1916 55.31759,46.1916c38,27 50.3622,51.90026 58.3622,45.90026c8,-6 98.41207,-63.93701 110.41207,-78.93701c12,-15 1.11286,-295.04199 35.58793,-354.58792" fill="none" fill-opacity="0.2" id="svg_7" stroke="#000000"/>
 </g>
 <g class="layer" display="inline">
  <title>Photos</title>
  <path d="m1864.71449,1380.96633l238.94583,11.71303l2.34261,373.64568l-283.45534,-12.88433l42.16691,-372.47438l-0.00001,0z" fill="none" fill-opacity="0.2" id="svg_102" stroke="#000000">
   <title>048891-IMG_6661</title>
  </path>
  <path d="m1369.10569,1502.43902l303.25203,23.57724l21.95122,441.46341l-378.04878,-10.56911l52.84553,-454.47154z" fill="none" fill-opacity="0.2" id="svg_103" stroke="#000000">
   <title>048893-IMG_6663</title>
  </path>
  <path d="m1830.09709,1561.16505l369.90291,0l48.18581,621.12537l-474.35729,-58.97541l56.26857,-562.14996z" fill="none" fill-opacity="0.2" id="svg_104" stroke="#000000">
   <title>048890-IMG_6660</title>
  </path>
  <path d="m1743.22614,1037.4994l535.99464,-2.43447l33.76623,838.96104l-597.92016,-78.2839l27.79029,-754.18364l0.369,-4.05903z" fill="none" fill-opacity="0.2" id="svg_172" stroke="#000000">
   <title>048897-IMG_6667</title>
  </path>
  <path d="m1763.06306,1450.45045l366.66667,17.11712l-2.7027,538.73874l-413.51351,-38.73874l49.54955,-517.11712l-0.00001,0z" fill="#000000" fill-opacity="0" id="svg_196" stroke="#000000">
   <title>048899-IMG_6669</title>
  </path>
  <path d="m1330.92784,1739.17526l414.43299,-2.06186l62.8866,622.68041l-486.59794,31.95876l9.27835,-652.57732l0,0.00001z" fill="#000000" fill-opacity="0" id="svg_241" stroke="#000000">
   <title>048895-IMG_6665</title>
  </path>
  <path d="m1927.74566,2156.6474l243.93064,-1.15607l1.15607,344.50867l-278.61272,-5.20231l33.52601,-338.15029z" fill="#000000" fill-opacity="0" id="svg_274" stroke="#000000">
   <title>048892-IMG_6662</title>
  </path>
  <path d="m1780,2251.17647l450.58824,-40l28.23529,345.29412l-494.11765,24.70588l15.29412,-330z" fill="#000000" fill-opacity="0" id="svg_337" stroke="#000000">
   <title>048889-IMG_6659</title>
  </path>
 </g>
 <g class="layer" display="inline">
  <title>Row 1 faded</title>
  <circle cx="1825.3866" cy="1517.68593" fill="#0000ff" fill-opacity="0.2" id="svg_166" r="2.914" stroke="#0000ff"/>
  <circle cx="1809.30964" cy="1517.13545" fill="#0000ff" fill-opacity="0.2" id="svg_167" r="2.88826" stroke="#0000ff"/>
  <circle cx="1796.77835" cy="1515.85052" fill="#0000ff" fill-opacity="0.2" id="svg_168" r="2.914" stroke="#0000ff"/>
  <circle cx="1782.73196" cy="1515.49521" fill="#0000ff" fill-opacity="0.2" id="svg_169" r="2.21709" stroke="#0000ff"/>
  <circle cx="1533.96833" cy="1529.08729" fill="#0000ff" fill-opacity="0.2" id="svg_11" r="3.04113" stroke="#0000ff"/>
  <circle cx="1614.26395" cy="1527.17255" fill="#0000ff" fill-opacity="0.2" id="svg_10" r="3.12616" stroke="#0000ff"/>
  <circle cx="1631.08693" cy="1525.42044" fill="#0000ff" fill-opacity="0.2" id="svg_8" r="3.86284" stroke="#0000ff"/>
  <circle cx="1646.59448" cy="1525.25047" fill="#0000ff" fill-opacity="0.2" id="svg_9" r="3.63391" stroke="#0000ff"/>
  <circle cx="1855.95931" cy="1519.57584" fill="#0000ff" fill-opacity="0.2" id="svg_29" r="4.04188" stroke="#0000ff"/>
  <circle cx="1879.62767" cy="1516.42348" fill="#0000ff" fill-opacity="0.2" id="svg_28" r="3.80228" stroke="#0000ff"/>
  <circle cx="1896.56096" cy="1516.56725" fill="#0000ff" fill-opacity="0.2" id="svg_27" r="4.04188" stroke="#0000ff"/>
  <circle cx="1913.44169" cy="1524.48017" fill="#0000ff" fill-opacity="0.2" id="svg_26" r="2.96968" stroke="#0000ff"/>
  <circle cx="1943.72161" cy="1541.36786" fill="#0000ff" fill-opacity="0.2" id="svg_25" r="3.58707" stroke="#0000ff"/>
  <circle cx="1961.88183" cy="1543.15805" fill="#0000ff" fill-opacity="0.2" id="svg_34" r="3.22226" stroke="#0000ff"/>
  <circle cx="1974.66306" cy="1550.33774" fill="#0000ff" fill-opacity="0.2" id="svg_35" r="2.92717" stroke="#0000ff"/>
  <circle cx="1988.07714" cy="1557.38" fill="#0000ff" fill-opacity="0.2" id="svg_36" r="3.55545" stroke="#0000ff"/>
  <circle cx="2003.24391" cy="1562.52721" fill="#0000ff" fill-opacity="0.2" id="svg_37" r="3.3467" stroke="#0000ff"/>
  <circle cx="2054.58276" cy="1568.06131" fill="#0000ff" fill-opacity="0.2" id="svg_38" r="3.22226" stroke="#0000ff"/>
  <circle cx="2071.994" cy="1572.62908" fill="#0000ff" fill-opacity="0.2" id="svg_39" r="3.44341" stroke="#0000ff"/>
  <circle cx="1838.72832" cy="1518.78613" fill="#0000ff" fill-opacity="0.2" id="svg_192" r="2.86113" stroke="#0000ff"/>
  <circle cx="1867.34104" cy="1517.63006" fill="#0000ff" fill-opacity="0.2" id="svg_193" r="3.93106" stroke="#0000ff"/>
  <circle cx="1995.66474" cy="1529.19075" fill="#0000ff" fill-opacity="0.2" id="svg_194" r="2.86113" stroke="#0000ff"/>
  <circle cx="1978.3237" cy="1528.03468" fill="#0000ff" fill-opacity="0.2" id="svg_195" r="2.66461" stroke="#0000ff"/>
  <circle cx="2016.76301" cy="1532.08092" fill="#0000ff" fill-opacity="0.2" id="svg_197" r="2.45239" stroke="#0000ff"/>
  <circle cx="2030.34682" cy="1535.83815" fill="#0000ff" fill-opacity="0.2" id="svg_198" r="2.66461" stroke="#0000ff"/>
  <circle cx="2050" cy="1536.41618" fill="#0000ff" fill-opacity="0.2" id="svg_199" r="4.08732" stroke="#0000ff"/>
  <circle cx="2081.50289" cy="1536.12717" fill="#0000ff" fill-opacity="0.2" id="svg_200" r="5.32922" stroke="#0000ff"/>
  <circle cx="2113.87283" cy="1542.77457" fill="#0000ff" fill-opacity="0.2" id="svg_201" r="3.52791" stroke="#0000ff"/>
 </g>
 <g class="layer" display="inline">
  <title>Row 2 faded</title>
  <circle cx="1879.90383" cy="1547.85506" fill="#00bf00" fill-opacity="0.2" id="svg_30" r="3.39352" stroke="#00bf00"/>
  <circle cx="1898.97743" cy="1554.40873" fill="#00bf00" fill-opacity="0.2" id="svg_31" r="3.39352" stroke="#00bf00"/>
  <circle cx="1922.89386" cy="1554.58417" fill="#00bf00" fill-opacity="0.2" id="svg_32" r="3.59712" stroke="#00bf00"/>
  <circle cx="1957.43508" cy="1572.01693" fill="#00bf00" fill-opacity="0.2" id="svg_33" r="3.05226" stroke="#00bf00"/>
  <circle cx="2019.65318" cy="1567.05202" fill="#00bf00" fill-opacity="0.2" id="svg_202" r="3.52791" stroke="#00bf00"/>
  <circle cx="2036.7052" cy="1568.78613" fill="#00bf00" fill-opacity="0.2" id="svg_203" r="3.88833" stroke="#00bf00"/>
 </g>
 <g class="layer" display="inline">
  <title>Row 3 faded</title>
  <circle cx="1562.82054" cy="1558.47743" fill="#ff0000" fill-opacity="0.2" id="svg_2" r="2.36171" stroke="#ff0000"/>
  <circle cx="1587.06172" cy="1554.63327" fill="#ff0000" fill-opacity="0.2" id="svg_3" r="3.14895" stroke="#ff0000"/>
  <circle cx="1607.42112" cy="1552.08303" fill="#ff0000" fill-opacity="0.2" id="svg_4" r="3.03328" stroke="#ff0000"/>
  <circle cx="1625.45743" cy="1550.13408" fill="#ff0000" fill-opacity="0.2" id="svg_5" r="3.22376" stroke="#ff0000"/>
  <circle cx="1646.00831" cy="1549.52205" fill="#ff0000" fill-opacity="0.2" id="svg_6" r="3.52064" stroke="#ff0000"/>
  <circle cx="1665.91492" cy="1550.45988" fill="#ff0000" fill-opacity="0.2" id="svg_7" r="3.63391" stroke="#ff0000"/>
  <circle cx="1763.95522" cy="1560.57536" fill="#ff0000" fill-opacity="0.2" id="svg_12" r="4.11964" stroke="#ff0000"/>
  <circle cx="1784.48999" cy="1565.06037" fill="#ff0000" fill-opacity="0.2" id="svg_13" r="3.9058" stroke="#ff0000"/>
  <circle cx="1809.35933" cy="1571.22765" fill="#ff0000" fill-opacity="0.2" id="svg_14" r="4.72343" stroke="#ff0000"/>
  <circle cx="1836.39058" cy="1573.92295" fill="#ff0000" fill-opacity="0.2" id="svg_15" r="4.026" stroke="#ff0000"/>
  <circle cx="1861.79332" cy="1577.89607" fill="#ff0000" fill-opacity="0.2" id="svg_16" r="4.30081" stroke="#ff0000"/>
  <circle cx="1880.41406" cy="1583.23927" fill="#ff0000" fill-opacity="0.2" id="svg_17" r="4.97893" stroke="#ff0000"/>
  <circle cx="1910.17236" cy="1583.82149" fill="#ff0000" fill-opacity="0.2" id="svg_18" r="4.47423" stroke="#ff0000"/>
  <circle cx="1896.78149" cy="1585.65312" fill="#ff0000" fill-opacity="0.2" id="svg_19" r="3.6582" stroke="#ff0000"/>
  <circle cx="1948.76846" cy="1589.51231" fill="#ff0000" fill-opacity="0.2" id="svg_20" r="4.16967" stroke="#ff0000"/>
  <circle cx="1964.05748" cy="1590.42812" fill="#ff0000" fill-opacity="0.2" id="svg_21" r="3.77623" stroke="#ff0000"/>
  <circle cx="1978.76599" cy="1589.95974" fill="#ff0000" fill-opacity="0.2" id="svg_22" r="4.02919" stroke="#ff0000"/>
  <circle cx="1995.28885" cy="1591.28106" fill="#ff0000" fill-opacity="0.2" id="svg_23" r="3.81237" stroke="#ff0000"/>
  <circle cx="2054.53943" cy="1591.88253" fill="#ff0000" fill-opacity="0.2" id="svg_24" r="3.81237" stroke="#ff0000"/>
  <circle cx="2039.30636" cy="1595.08671" fill="#ff0000" fill-opacity="0.2" id="svg_204" r="3.52791" stroke="#ff0000"/>
  <circle cx="2025.43412" cy="1595.60776" fill="#ff0000" fill-opacity="0.2" id="svg_303" r="2.3846" stroke="#ff0000"/>
 </g>
 <g class="layer" display="inline">
  <title>Row 4</title>
  <circle cx="1421.74723" cy="1613.38291" fill="none" id="svg_40" r="4.67563" stroke="#000000"/>
  <circle cx="1449.07063" cy="1613.01115" fill="none" id="svg_41" r="5.17784" stroke="#000000"/>
  <circle cx="1480.66914" cy="1612.45353" fill="none" id="svg_42" r="4.94927" stroke="#000000"/>
  <circle cx="1500.55762" cy="1612.26766" fill="none" id="svg_43" r="5.83655" stroke="#000000"/>
  <circle cx="1521.93309" cy="1609.8513" fill="none" id="svg_44" r="5.28352" stroke="#000000"/>
  <circle cx="1543.86617" cy="1610.22305" fill="none" id="svg_45" r="5.789" stroke="#000000"/>
  <circle cx="1568.77323" cy="1613.19703" fill="none" id="svg_46" r="6.06871" stroke="#000000"/>
  <circle cx="1587.36059" cy="1611.71004" fill="none" id="svg_47" r="5.87784" stroke="#000000"/>
  <circle cx="1606.13383" cy="1609.66543" fill="none" id="svg_48" r="6.34426" stroke="#000000"/>
  <circle cx="1627.88103" cy="1610.22304" fill="none" id="svg_49" r="5.74832" stroke="#000000"/>
  <circle cx="1649.72119" cy="1610.8736" fill="none" id="svg_50" r="5.74555" stroke="#000000"/>
  <circle cx="1669.7026" cy="1608.92193" fill="none" id="svg_51" r="5.98559" stroke="#000000"/>
  <circle cx="1873.82881" cy="1618.31732" fill="none" fill-opacity="0.2" id="svg_86" r="5.3365" stroke="#000000"/>
  <circle cx="1892.15453" cy="1618.60465" fill="none" fill-opacity="0.2" id="svg_87" r="5.3602" stroke="#000000"/>
  <circle cx="1918.60465" cy="1621.51163" fill="none" fill-opacity="0.2" id="svg_88" r="5.96462" stroke="#000000"/>
  <circle cx="1936.33721" cy="1620.93023" fill="none" fill-opacity="0.2" id="svg_89" r="5.77018" stroke="#000000"/>
  <circle cx="2052.61628" cy="1615.98837" fill="none" fill-opacity="0.2" id="svg_90" r="5.3602" stroke="#000000"/>
  <circle cx="1829.1712" cy="1609.6375" fill="none" fill-opacity="0.2" id="svg_98" r="5.78164" stroke="#000000"/>
  <circle cx="1810.48089" cy="1605.91862" fill="none" fill-opacity="0.2" id="svg_170" r="4.10625" stroke="#000000"/>
  <circle cx="1789.1492" cy="1607.64488" fill="none" fill-opacity="0.2" id="svg_171" r="4.61693" stroke="#000000"/>
  <circle cx="1770.65351" cy="1606.04192" fill="none" fill-opacity="0.2" id="svg_173" r="5.06" stroke="#000000"/>
  <circle cx="1750.18496" cy="1605.17879" fill="none" fill-opacity="0.2" id="svg_174" r="4.07092" stroke="#000000"/>
  <circle cx="1729.46979" cy="1604.80888" fill="none" fill-opacity="0.2" id="svg_175" r="6.29337" stroke="#000000"/>
  <circle cx="1848.582" cy="1611.34401" fill="none" fill-opacity="0.2" id="svg_176" r="3.27388" stroke="#000000"/>
  <circle cx="2002.46609" cy="1617.75586" fill="none" fill-opacity="0.2" id="svg_177" r="5.14492" stroke="#000000"/>
  <circle cx="2028.97657" cy="1610.97411" fill="none" fill-opacity="0.2" id="svg_178" r="4.58885" stroke="#000000"/>
  <circle cx="2087.66954" cy="1612.82367" fill="none" fill-opacity="0.2" id="svg_179" r="5.99265" stroke="#000000"/>
  <circle cx="2043.64162" cy="1616.47399" fill="none" fill-opacity="0.2" id="svg_205" r="3.01743" stroke="#000000"/>
 </g>
 <g class="layer" display="inline">
  <title>Row 5 faded</title>
  <circle cx="2067.20099" cy="1636.49815" fill="#aa56ff" fill-opacity="0.2" id="svg_180" r="2.87857" stroke="#aa56ff"/>
  <circle cx="2096.30086" cy="1642.66338" fill="#aa56ff" fill-opacity="0.2" id="svg_181" r="2.35573" stroke="#aa56ff"/>
 </g>
 <g class="layer" display="inline">
  <title>Row 6</title>
  <circle cx="1423.9777" cy="1656.87732" fill="none" id="svg_52" r="5.18451" stroke="#000000"/>
  <circle cx="1452.60223" cy="1655.94796" fill="none" id="svg_53" r="5.83655" stroke="#000000"/>
  <circle cx="1478.62454" cy="1657.43494" fill="none" id="svg_54" r="5.2573" stroke="#000000"/>
  <circle cx="1506.87732" cy="1656.50558" fill="none" id="svg_55" r="6.03159" stroke="#000000"/>
  <circle cx="1529.73978" cy="1656.69145" fill="none" id="svg_56" r="5.4191" stroke="#000000"/>
  <circle cx="1552.41636" cy="1656.3197" fill="none" id="svg_57" r="6.85468" stroke="#000000"/>
  <circle cx="1570.07435" cy="1658.55019" fill="none" id="svg_58" r="5.92759" stroke="#000000"/>
  <circle cx="1589.21933" cy="1656.3197" fill="none" id="svg_59" r="4.53775" stroke="#000000"/>
  <circle cx="1608.36431" cy="1656.13383" fill="none" id="svg_60" r="6.44153" stroke="#000000"/>
  <circle cx="1630.66914" cy="1655.20446" fill="none" id="svg_61" r="6.30876" stroke="#000000"/>
  <circle cx="1651.30112" cy="1655.20446" fill="none" id="svg_62" r="5.00135" stroke="#000000"/>
  <circle cx="1676.39405" cy="1657.0632" fill="none" id="svg_63" r="5.52016" stroke="#000000"/>
  <circle cx="1840.73352" cy="1672.73067" fill="none" fill-opacity="0" id="svg_91" r="4.94186" stroke="#000000"/>
  <circle cx="1865.70272" cy="1677.03656" fill="none" fill-opacity="0" id="svg_92" r="5.55377" stroke="#000000"/>
  <circle cx="1891.86047" cy="1675.87209" fill="none" fill-opacity="0" id="svg_93" r="6.04903" stroke="#000000"/>
  <circle cx="2002.03488" cy="1668.60465" fill="none" fill-opacity="0" id="svg_94" r="4.7678" stroke="#000000"/>
  <circle cx="2053.48837" cy="1661.33721" fill="none" fill-opacity="0" id="svg_95" r="5.75552" stroke="#000000"/>
  <circle cx="2037.2093" cy="1665.69767" fill="none" fill-opacity="0" id="svg_96" r="5.96462" stroke="#000000"/>
  <circle cx="2085.59737" cy="1664.33798" fill="none" fill-opacity="0" id="svg_97" r="4.7151" stroke="#000000"/>
  <circle cx="1811.96054" cy="1669.29716" fill="none" fill-opacity="0" id="svg_182" r="4.86389" stroke="#000000"/>
  <circle cx="1784.83354" cy="1668.68064" fill="none" fill-opacity="0" id="svg_183" r="5.35346" stroke="#000000"/>
  <circle cx="1757.66412" cy="1661.66012" fill="none" fill-opacity="0" id="svg_184" r="6.98387" stroke="#000000"/>
  <circle cx="1730.08631" cy="1660.91245" fill="none" fill-opacity="0" id="svg_185" r="6.80972" stroke="#000000"/>
  <circle cx="2019.48212" cy="1667.07768" fill="none" fill-opacity="0" id="svg_186" r="4.89039" stroke="#000000"/>
  <circle cx="1705.22388" cy="1658.58209" fill="#000000" fill-opacity="0" id="svg_269" r="6.11986" stroke="#000000"/>
 </g>
 <g class="layer" display="inline">
  <title>Row 7 faded</title>
  <circle cx="1844.60784" cy="1723.366" fill="#aaaaff" fill-opacity="0.2" id="svg_99" r="5.22642" stroke="#aaaaff"/>
  <circle cx="1862.4183" cy="1724.50981" fill="#aaaaff" fill-opacity="0.2" id="svg_100" r="4.99309" stroke="#aaaaff"/>
  <circle cx="1824.8366" cy="1718.95425" fill="#aaaaff" fill-opacity="0.2" id="svg_101" r="4.71314" stroke="#aaaaff"/>
  <circle cx="1881.69935" cy="1723.52941" fill="#aaaaff" fill-opacity="0.2" id="svg_105" r="5.35988" stroke="#aaaaff"/>
  <circle cx="1808.95954" cy="1717.05202" fill="#aaaaff" fill-opacity="0.2" id="svg_206" r="3.2953" stroke="#aaaaff"/>
 </g>
 <g class="layer" display="inline">
  <title>Row 8</title>
  <circle cx="1421.74721" cy="1748.13291" fill="none" fill-opacity="0.2" id="svg_64" r="7.76453" stroke="#000000"/>
  <circle cx="1449.62825" cy="1748.88476" fill="none" fill-opacity="0.2" id="svg_65" r="7.68402" stroke="#000000"/>
  <circle cx="1480.85502" cy="1755.39033" fill="none" fill-opacity="0.2" id="svg_66" r="7.64119" stroke="#000000"/>
  <circle cx="1511.81789" cy="1752.15244" fill="none" fill-opacity="0.2" id="svg_67" r="6.75327" stroke="#000000"/>
  <circle cx="1541.72662" cy="1751.61803" fill="none" fill-opacity="0.2" id="svg_68" r="7.97159" stroke="#000000"/>
  <circle cx="1572.78177" cy="1750.47961" fill="none" fill-opacity="0.2" id="svg_69" r="8.56357" stroke="#000000"/>
  <circle cx="1604.15218" cy="1749.50557" fill="none" fill-opacity="0.2" id="svg_70" r="8.2027" stroke="#000000"/>
 </g>
 <g class="layer" display="inline">
  <title>Row 9 faded</title>
  <circle cx="2203.88769" cy="1779.26566" fill="#56ffff" fill-opacity="0.2" id="svg_109" r="3.41499" stroke="#56ffff"/>
  <circle cx="2224.87176" cy="1779.61538" fill="#56ffff" fill-opacity="0.2" id="svg_187" r="2.44653" stroke="#56ffff"/>
  <circle cx="2153.58974" cy="1779.48718" fill="#56ffff" fill-opacity="0.2" id="svg_188" r="2.99023" stroke="#56ffff"/>
  <circle cx="2129.48718" cy="1780.51282" fill="#56ffff" fill-opacity="0.2" id="svg_189" r="2.90095" stroke="#56ffff"/>
  <circle cx="2114.61538" cy="1777.94872" fill="#56ffff" fill-opacity="0.2" id="svg_190" r="3.08759" stroke="#56ffff"/>
  <circle cx="2101.79487" cy="1776.15385" fill="#56ffff" fill-opacity="0.2" id="svg_191" r="3.34318" stroke="#56ffff"/>
 </g>
 <g class="layer" display="inline">
  <title>Row 10 faded</title>
  <circle cx="2130.0216" cy="1805.18359" fill="#ff56aa" fill-opacity="0.2" id="svg_106" r="2.76593" stroke="#ff56aa"/>
  <circle cx="2145.57235" cy="1798.7041" fill="#ff56aa" fill-opacity="0.2" id="svg_107" r="2.60078" stroke="#ff56aa"/>
  <circle cx="2160.25918" cy="1788.98488" fill="#ff56aa" fill-opacity="0.2" id="svg_108" r="2.90575" stroke="#ff56aa"/>
 </g>
 <g class="layer" display="inline">
  <title>Row 11 faded</title>
  <circle cx="1576.3835" cy="1842.37668" fill="#007f7f" fill-opacity="0.2" id="svg_71" r="3.04966" stroke="#007f7f"/>
  <circle cx="1558.96861" cy="1841.92825" fill="#007f7f" fill-opacity="0.2" id="svg_72" r="2.30844" stroke="#007f7f"/>
  <circle cx="1542.82511" cy="1847.75785" fill="#007f7f" fill-opacity="0.2" id="svg_73" r="2.69991" stroke="#007f7f"/>
  <circle cx="1524.66368" cy="1849.55157" fill="#007f7f" fill-opacity="0.2" id="svg_74" r="3.04966" stroke="#007f7f"/>
  <circle cx="1508.96861" cy="1853.13901" fill="#007f7f" fill-opacity="0.2" id="svg_75" r="3.1149" stroke="#007f7f"/>
  <circle cx="1592.6009" cy="1839.91031" fill="#007f7f" fill-opacity="0.2" id="svg_76" r="2.92341" stroke="#007f7f"/>
  <circle cx="1603.36323" cy="1832.06278" fill="#007f7f" fill-opacity="0.2" id="svg_77" r="2.61478" stroke="#007f7f"/>
  <circle cx="1613.45291" cy="1826.00897" fill="#007f7f" fill-opacity="0.2" id="svg_78" r="2.06716" stroke="#007f7f"/>
  <circle cx="1802.60117" cy="1876.30059" fill="#007f7f" fill-opacity="0.2" id="svg_110" r="3.71854" stroke="#007f7f"/>
  <circle cx="1814.16185" cy="1870.80925" fill="#007f7f" fill-opacity="0.2" id="svg_111" r="3.49221" stroke="#007f7f"/>
  <circle cx="1826.01156" cy="1869.65318" fill="#007f7f" fill-opacity="0.2" id="svg_112" r="3.1262" stroke="#007f7f"/>
  <circle cx="1839.59537" cy="1871.09828" fill="#007f7f" fill-opacity="0.2" id="svg_113" r="3.06424" stroke="#007f7f"/>
  <circle cx="1854.04624" cy="1871.09827" fill="#007f7f" fill-opacity="0.2" id="svg_114" r="3.0723" stroke="#007f7f"/>
  <circle cx="1869.65318" cy="1876.01156" fill="#007f7f" fill-opacity="0.2" id="svg_115" r="3.2953" stroke="#007f7f"/>
  <circle cx="1918.49711" cy="1884.9711" fill="#007f7f" fill-opacity="0.2" id="svg_116" r="2.89017" stroke="#007f7f"/>
  <circle cx="1933.52601" cy="1887.57225" fill="#007f7f" fill-opacity="0.2" id="svg_117" r="3.1262" stroke="#007f7f"/>
  <circle cx="1947.97688" cy="1893.93064" fill="#007f7f" fill-opacity="0.2" id="svg_118" r="3.11281" stroke="#007f7f"/>
  <circle cx="1882.08092" cy="1878.61272" fill="#007f7f" fill-opacity="0.2" id="svg_207" r="3.26986" stroke="#007f7f"/>
  <circle cx="1981.21387" cy="1900.28902" fill="#007f7f" fill-opacity="0.2" id="svg_208" r="3.0723" stroke="#007f7f"/>
  <circle cx="1968.93063" cy="1895.80924" fill="#007f7f" fill-opacity="0.2" id="svg_209" r="3.00565" stroke="#007f7f"/>
  <circle cx="1997.97688" cy="1902.89017" fill="#007f7f" fill-opacity="0.2" id="svg_210" r="3.1262" stroke="#007f7f"/>
  <circle cx="2013.2948" cy="1903.46821" fill="#007f7f" fill-opacity="0.2" id="svg_211" r="3.48023" stroke="#007f7f"/>
  <circle cx="2029.47977" cy="1908.09249" fill="#007f7f" fill-opacity="0.2" id="svg_212" r="2.89017" stroke="#007f7f"/>
  <circle cx="2038.15029" cy="1910.98266" fill="#007f7f" fill-opacity="0.2" id="svg_213" r="2.66461" stroke="#007f7f"/>
  <circle cx="2047.68786" cy="1913.2948" fill="#007f7f" fill-opacity="0.2" id="svg_214" r="2.97562" stroke="#007f7f"/>
  <circle cx="2072.25434" cy="1912.42775" fill="#007f7f" fill-opacity="0.2" id="svg_215" r="3.76833" stroke="#007f7f"/>
  <circle cx="2084.10405" cy="1913.58382" fill="#007f7f" fill-opacity="0.2" id="svg_216" r="3.88833" stroke="#007f7f"/>
  <circle cx="2100.28902" cy="1912.13873" fill="#007f7f" fill-opacity="0.2" id="svg_217" r="3.70123" stroke="#007f7f"/>
  <circle cx="2112.13873" cy="1913.58382" fill="#007f7f" fill-opacity="0.2" id="svg_218" r="2.45239" stroke="#007f7f"/>
  <circle cx="1718.72659" cy="1870.78652" fill="#007f7f" fill-opacity="0.2" id="svg_231" r="2.92519" stroke="#007f7f"/>
  <circle cx="1731.83521" cy="1871.53558" fill="#007f7f" fill-opacity="0.2" id="svg_232" r="2.92519" stroke="#007f7f"/>
  <circle cx="1741.1985" cy="1874.1573" fill="#007f7f" fill-opacity="0.2" id="svg_233" r="3.17801" stroke="#007f7f"/>
 </g>
 <g class="layer" display="inline">
  <title>Row 12 faded</title>
  <circle cx="1892.51001" cy="1903.90107" fill="#00007f" fill-opacity="0.2" id="svg_119" r="2.49026" stroke="#00007f"/>
  <circle cx="1901.20524" cy="1905.16247" fill="#00007f" fill-opacity="0.2" id="svg_120" r="2.62343" stroke="#00007f"/>
 </g>
 <g class="layer" display="inline">
  <title>Row 13</title>
  <circle cx="1646.67722" cy="1901.89873" fill="none" fill-opacity="0.2" id="svg_79" r="5.37509" stroke="#000000"/>
  <circle cx="1666.4557" cy="1910.44304" fill="none" fill-opacity="0.2" id="svg_80" r="4.72039" stroke="#000000"/>
  <circle cx="1684.11913" cy="1914.18243" fill="none" fill-opacity="0.2" id="svg_81" r="5.70439" stroke="#000000"/>
  <circle cx="1797.60192" cy="1933.39051" fill="#000000" fill-opacity="0" id="svg_121" r="5.92282" stroke="#000000"/>
  <circle cx="1815.58753" cy="1940.28777" fill="#000000" fill-opacity="0" id="svg_122" r="4.07674" stroke="#000000"/>
  <circle cx="1832.13429" cy="1937.64988" fill="#000000" fill-opacity="0" id="svg_123" r="4.92045" stroke="#000000"/>
  <circle cx="1847.84173" cy="1939.44844" fill="#000000" fill-opacity="0" id="svg_124" r="5.82816" stroke="#000000"/>
  <circle cx="1865.09382" cy="1936.25967" fill="#000000" fill-opacity="0" id="svg_125" r="6.55815" stroke="#000000"/>
  <circle cx="1887.52998" cy="1937.88969" fill="#000000" fill-opacity="0" id="svg_126" r="5.42624" stroke="#000000"/>
  <circle cx="1900.99079" cy="1939.39424" fill="#000000" fill-opacity="0" id="svg_127" r="4.15027" stroke="#000000"/>
  <circle cx="1920.86331" cy="1939.80815" fill="#000000" fill-opacity="0" id="svg_128" r="4.42184" stroke="#000000"/>
  <circle cx="1935.2518" cy="1941.72662" fill="#000000" fill-opacity="0" id="svg_129" r="4.60656" stroke="#000000"/>
  <circle cx="1952.75779" cy="1943.88489" fill="#000000" fill-opacity="0" id="svg_130" r="4.92045" stroke="#000000"/>
  <circle cx="1968.34532" cy="1942.44604" fill="#000000" fill-opacity="0" id="svg_131" r="3.90379" stroke="#000000"/>
  <circle cx="1984.29554" cy="1941.998" fill="#000000" fill-opacity="0" id="svg_132" r="3.85575" stroke="#000000"/>
  <circle cx="2032.13429" cy="1948.94389" fill="#000000" fill-opacity="0" id="svg_133" r="4.12582" stroke="#000000"/>
  <circle cx="2042.77717" cy="1947.26523" fill="#000000" fill-opacity="0" id="svg_134" r="3.59712" stroke="#000000"/>
  <circle cx="2051.55875" cy="1943.37113" fill="#000000" fill-opacity="0" id="svg_135" r="3.45856" stroke="#000000"/>
  <circle cx="2063.84614" cy="1946.00902" fill="#000000" fill-opacity="0" id="svg_136" r="4.40229" stroke="#000000"/>
  <circle cx="2076.48173" cy="1944.833" fill="#000000" fill-opacity="0" id="svg_137" r="4.24264" stroke="#000000"/>
  <circle cx="2102.8777" cy="1944.45583" fill="#000000" fill-opacity="0" id="svg_138" r="5.09839" stroke="#000000"/>
  <circle cx="2127.09832" cy="1944.84412" fill="#000000" fill-opacity="0" id="svg_139" r="5.28123" stroke="#000000"/>
  <circle cx="2148.68106" cy="1945.80336" fill="#000000" fill-opacity="0" id="svg_140" r="5.19696" stroke="#000000"/>
  <circle cx="2167.86571" cy="1947.96163" fill="#000000" fill-opacity="0" id="svg_141" r="4.3232" stroke="#000000"/>
  <circle cx="2182.494" cy="1951.79856" fill="#000000" fill-opacity="0" id="svg_142" r="4.08379" stroke="#000000"/>
  <circle cx="1726.3245" cy="1923.01325" fill="#000000" fill-opacity="0" id="svg_219" r="5.61939" stroke="#000000"/>
  <circle cx="1707.61589" cy="1920.86093" fill="#000000" fill-opacity="0" id="svg_220" r="5.10031" stroke="#000000"/>
  <circle cx="1743.04636" cy="1926.49007" fill="#000000" fill-opacity="0" id="svg_221" r="3.72056" stroke="#000000"/>
  <circle cx="2002.64901" cy="1945.03311" fill="#000000" fill-opacity="0" id="svg_222" r="4.80132" stroke="#000000"/>
  <circle cx="2019.03974" cy="1948.50993" fill="#000000" fill-opacity="0" id="svg_223" r="3.77542" stroke="#000000"/>
  <circle cx="1771.07438" cy="1930.99174" fill="#000000" fill-opacity="0" id="svg_229" r="5.26758" stroke="#000000"/>
 </g>
 <g class="layer" display="inline">
  <title>Row 14</title>
  <circle cx="1637.65823" cy="1927.21519" fill="none" fill-opacity="0.2" id="svg_82" r="6.37837" stroke="#000000"/>
  <circle cx="1653.79747" cy="1931.17089" fill="none" fill-opacity="0.2" id="svg_83" r="5.71595" stroke="#000000"/>
  <circle cx="1674.05063" cy="1936.07595" fill="none" fill-opacity="0.2" id="svg_84" r="5.81797" stroke="#000000"/>
  <circle cx="1690.66456" cy="1943.51266" fill="none" fill-opacity="0.2" id="svg_85" r="5.98135" stroke="#000000"/>
  <circle cx="1793.04556" cy="1952.27818" fill="#000000" fill-opacity="0" id="svg_143" r="5.65968" stroke="#000000"/>
  <circle cx="1810.86562" cy="1956.68605" fill="#000000" fill-opacity="0" id="svg_144" r="4.58153" stroke="#000000"/>
  <circle cx="1825.87665" cy="1960.25457" fill="#000000" fill-opacity="0" id="svg_145" r="4.29288" stroke="#000000"/>
  <circle cx="1845.21536" cy="1963.54916" fill="#000000" fill-opacity="0" id="svg_146" r="4.65623" stroke="#000000"/>
  <circle cx="1863.20097" cy="1963.89735" fill="#000000" fill-opacity="0" id="svg_147" r="4.46069" stroke="#000000"/>
  <circle cx="1883.13918" cy="1965.4847" fill="#000000" fill-opacity="0" id="svg_148" r="5.28123" stroke="#000000"/>
  <circle cx="1902.9976" cy="1962.47003" fill="#000000" fill-opacity="0" id="svg_149" r="4.14975" stroke="#000000"/>
  <circle cx="1918.70504" cy="1964.26859" fill="#000000" fill-opacity="0" id="svg_150" r="4.06968" stroke="#000000"/>
  <circle cx="1937.88969" cy="1965.70743" fill="#000000" fill-opacity="0" id="svg_151" r="4.79616" stroke="#000000"/>
  <circle cx="1962.0045" cy="1970.45495" fill="#000000" fill-opacity="0" id="svg_152" r="4.73502" stroke="#000000"/>
  <circle cx="1979.83904" cy="1973.56393" fill="#000000" fill-opacity="0" id="svg_153" r="3.93315" stroke="#000000"/>
  <circle cx="1992.15798" cy="1975.67951" fill="#000000" fill-opacity="0" id="svg_154" r="4.88897" stroke="#000000"/>
  <circle cx="2024.53468" cy="1975.39108" fill="#000000" fill-opacity="0" id="svg_155" r="4.76006" stroke="#000000"/>
  <circle cx="2039.32854" cy="1976.4988" fill="#000000" fill-opacity="0" id="svg_156" r="3.3914" stroke="#000000"/>
  <circle cx="2053.53439" cy="1976.25899" fill="#000000" fill-opacity="0" id="svg_157" r="4.24264" stroke="#000000"/>
  <circle cx="2070.74341" cy="1975.53957" fill="#000000" fill-opacity="0" id="svg_158" r="3.90379" stroke="#000000"/>
  <circle cx="2085.97421" cy="1977.07827" fill="#000000" fill-opacity="0" id="svg_159" r="3.47466" stroke="#000000"/>
  <circle cx="2105.78101" cy="1977.98628" fill="#000000" fill-opacity="0" id="svg_160" r="3.82136" stroke="#000000"/>
  <circle cx="2122.05381" cy="1981.1951" fill="#000000" fill-opacity="0" id="svg_161" r="3.66378" stroke="#000000"/>
  <circle cx="2146.76259" cy="1982.2542" fill="#000000" fill-opacity="0" id="svg_162" r="4.42184" stroke="#000000"/>
  <circle cx="2165.46763" cy="1982.01439" fill="#000000" fill-opacity="0" id="svg_163" r="4.42184" stroke="#000000"/>
  <circle cx="1710.43046" cy="1947.01987" fill="#000000" fill-opacity="0" id="svg_224" r="4.83546" stroke="#000000"/>
  <circle cx="1725.87123" cy="1947.22884" fill="#000000" fill-opacity="0" id="svg_225" r="3.66085" stroke="#000000"/>
  <circle cx="1745.86093" cy="1948.6755" fill="#000000" fill-opacity="0" id="svg_226" r="4.09914" stroke="#000000"/>
  <circle cx="1776.73841" cy="1952.56623" fill="#000000" fill-opacity="0" id="svg_227" r="3.14875" stroke="#000000"/>
  <circle cx="2009.43709" cy="1975.16556" fill="#000000" fill-opacity="0" id="svg_228" r="4.20541" stroke="#000000"/>
  <circle cx="1764.04959" cy="1951.8595" fill="#000000" fill-opacity="0" id="svg_230" r="3.8432" stroke="#000000"/>
 </g>
 <g class="layer">
  <title>Row 15</title>
  <circle cx="2215.10791" cy="2033.09353" fill="#000000" fill-opacity="0" id="svg_164" r="4.79616" stroke="#000000"/>
  <circle cx="2234.53237" cy="2035.49161" fill="#000000" fill-opacity="0" id="svg_165" r="4.65623" stroke="#000000"/>
 </g>
 <g class="layer" display="inline">
  <title>Row 16</title>
  <circle cx="1514.81481" cy="2127.77778" fill="#000000" fill-opacity="0" id="svg_234" r="5.03689" stroke="#000000"/>
  <circle cx="1526.98413" cy="2138.75661" fill="#000000" fill-opacity="0" id="svg_235" r="4.69716" stroke="#000000"/>
  <circle cx="1549.60317" cy="2129.2328" fill="#000000" fill-opacity="0" id="svg_236" r="7.69587" stroke="#000000"/>
 </g>
 <g class="layer" display="inline">
  <title>Row 17</title>
  <circle cx="1683.20106" cy="2164.02116" fill="#000000" fill-opacity="0" id="svg_237" r="10.71755" stroke="#000000"/>
 </g>
 <g class="layer" display="inline">
  <title>Row 18</title>
  <circle cx="1627.88204" cy="2205.36193" fill="#000000" fill-opacity="0" id="svg_238" r="4.56552" stroke="#000000"/>
  <circle cx="1641.55496" cy="2202.14477" fill="#000000" fill-opacity="0" id="svg_239" r="4.19637" stroke="#000000"/>
  <circle cx="1653.35121" cy="2197.58713" fill="#000000" fill-opacity="0" id="svg_240" r="4.19637" stroke="#000000"/>
  <circle cx="1665.14745" cy="2199.19571" fill="#000000" fill-opacity="0" id="svg_242" r="4.61251" stroke="#000000"/>
  <circle cx="1678.01609" cy="2200.53619" fill="#000000" fill-opacity="0" id="svg_243" r="3.9584" stroke="#000000"/>
  <circle cx="1696.24665" cy="2202.94906" fill="#000000" fill-opacity="0" id="svg_244" r="4.3643" stroke="#000000"/>
  <circle cx="1714.20912" cy="2203.48525" fill="#000000" fill-opacity="0" id="svg_245" r="4.08352" stroke="#000000"/>
  <circle cx="1732.43968" cy="2208.84718" fill="#000000" fill-opacity="0" id="svg_246" r="3.98554" stroke="#000000"/>
  <circle cx="1749.32976" cy="2210.18767" fill="#000000" fill-opacity="0" id="svg_247" r="4.09232" stroke="#000000"/>
  <circle cx="1763.00268" cy="2214.74531" fill="#000000" fill-opacity="0" id="svg_248" r="4.32293" stroke="#000000"/>
  <circle cx="1778.82038" cy="2220.10724" fill="#000000" fill-opacity="0" id="svg_249" r="4.19637" stroke="#000000"/>
  <circle cx="1794.90617" cy="2224.66488" fill="#000000" fill-opacity="0" id="svg_250" r="4.39711" stroke="#000000"/>
  <circle cx="1975.83082" cy="2249.24471" fill="#000000" fill-opacity="0" id="svg_270" r="3.41804" stroke="#000000"/>
  <circle cx="1991.23867" cy="2253.47432" fill="#000000" fill-opacity="0" id="svg_271" r="4.49126" stroke="#000000"/>
  <circle cx="2005.74018" cy="2262.53776" fill="#000000" fill-opacity="0" id="svg_272" r="3.86896" stroke="#000000"/>
  <circle cx="2020.24169" cy="2264.65257" fill="#000000" fill-opacity="0" id="svg_273" r="3.63794" stroke="#000000"/>
  <circle cx="2039.27492" cy="2269.78852" fill="#000000" fill-opacity="0" id="svg_275" r="3.44464" stroke="#000000"/>
  <circle cx="2049.84894" cy="2270.99698" fill="#000000" fill-opacity="0" id="svg_276" r="2.99078" stroke="#000000"/>
  <circle cx="2063.14199" cy="2272.80967" fill="#000000" fill-opacity="0" id="svg_277" r="3.86896" stroke="#000000"/>
  <circle cx="2078.24773" cy="2270.99698" fill="#000000" fill-opacity="0" id="svg_278" r="2.99078" stroke="#000000"/>
  <circle cx="2087.31118" cy="2271.29909" fill="#000000" fill-opacity="0" id="svg_279" r="2.85015" stroke="#000000"/>
  <circle cx="2098.18731" cy="2270.09063" fill="#000000" fill-opacity="0" id="svg_280" r="3.44464" stroke="#000000"/>
  <circle cx="2110.2719" cy="2270.39275" fill="#000000" fill-opacity="0" id="svg_281" r="3.63794" stroke="#000000"/>
  <circle cx="2128.09668" cy="2270.99698" fill="#000000" fill-opacity="0" id="svg_282" r="3.21152" stroke="#000000"/>
 </g>
 <g class="layer" display="inline">
  <title>Row 19</title>
  <circle cx="1549.7319" cy="2326.9437" fill="#000000" fill-opacity="0" id="svg_251" r="3.63041" stroke="#000000"/>
  <circle cx="1561.12601" cy="2324.12869" fill="#000000" fill-opacity="0" id="svg_252" r="4.09232" stroke="#000000"/>
  <circle cx="1576.40751" cy="2316.08579" fill="#000000" fill-opacity="0" id="svg_253" r="4.3643" stroke="#000000"/>
  <circle cx="1592.76139" cy="2315.2815" fill="#000000" fill-opacity="0" id="svg_254" r="4.1878" stroke="#000000"/>
  <circle cx="1608.57909" cy="2314.20912" fill="#000000" fill-opacity="0" id="svg_255" r="3.79146" stroke="#000000"/>
  <circle cx="1623.59249" cy="2309.91957" fill="#000000" fill-opacity="0" id="svg_256" r="3.60687" stroke="#000000"/>
  <circle cx="1637.80161" cy="2306.16622" fill="#000000" fill-opacity="0" id="svg_257" r="3.64651" stroke="#000000"/>
  <circle cx="1650.93834" cy="2298.39142" fill="#000000" fill-opacity="0" id="svg_258" r="4.61251" stroke="#000000"/>
  <circle cx="1664.87936" cy="2295.97855" fill="#000000" fill-opacity="0" id="svg_259" r="4.02145" stroke="#000000"/>
  <circle cx="1677.74799" cy="2293.83378" fill="#000000" fill-opacity="0" id="svg_260" r="3.64651" stroke="#000000"/>
  <circle cx="1690.08043" cy="2291.9571" fill="#000000" fill-opacity="0" id="svg_261" r="3.98554" stroke="#000000"/>
  <circle cx="1705.63003" cy="2292.4933" fill="#000000" fill-opacity="0" id="svg_262" r="3.98554" stroke="#000000"/>
  <circle cx="1730.02681" cy="2289.54424" fill="#000000" fill-opacity="0" id="svg_263" r="5.12198" stroke="#000000"/>
  <circle cx="1746.91689" cy="2292.4933" fill="#000000" fill-opacity="0" id="svg_264" r="4.3643" stroke="#000000"/>
  <circle cx="1764.61126" cy="2286.05898" fill="#000000" fill-opacity="0" id="svg_265" r="4.46202" stroke="#000000"/>
  <circle cx="1782.57373" cy="2280.96515" fill="#000000" fill-opacity="0" id="svg_266" r="4.3643" stroke="#000000"/>
  <circle cx="1796.78284" cy="2278.01609" fill="#000000" fill-opacity="0" id="svg_267" r="4.68977" stroke="#000000"/>
  <circle cx="1959.71129" cy="2272.96588" fill="#000000" fill-opacity="0" id="svg_283" r="3.93701" stroke="#000000"/>
  <circle cx="1981.10236" cy="2275.72178" fill="#000000" fill-opacity="0" id="svg_284" r="3.64867" stroke="#000000"/>
  <circle cx="1994.22572" cy="2281.88976" fill="#000000" fill-opacity="0" id="svg_285" r="4.88394" stroke="#000000"/>
  <circle cx="2013.38583" cy="2288.32021" fill="#000000" fill-opacity="0" id="svg_286" r="3.43471" stroke="#000000"/>
  <circle cx="2028.47769" cy="2293.43832" fill="#000000" fill-opacity="0" id="svg_287" r="3.25977" stroke="#000000"/>
  <circle cx="2048.03152" cy="2295.40681" fill="#000000" fill-opacity="0" id="svg_288" r="2.96883" stroke="#000000"/>
  <circle cx="2068.63517" cy="2299.86877" fill="#000000" fill-opacity="0" id="svg_289" r="4.88217" stroke="#000000"/>
  <circle cx="2087.13911" cy="2300.7874" fill="#000000" fill-opacity="0" id="svg_290" r="3.06368" stroke="#000000"/>
  <circle cx="2100.13123" cy="2305.77428" fill="#000000" fill-opacity="0" id="svg_291" r="2.83902" stroke="#000000"/>
  <circle cx="2123.88451" cy="2305.64304" fill="#000000" fill-opacity="0" id="svg_292" r="3.36378" stroke="#000000"/>
  <circle cx="2146.32546" cy="2307.34908" fill="#000000" fill-opacity="0" id="svg_293" r="3.83283" stroke="#000000"/>
 </g>
 <g class="layer" display="inline">
  <title>Row 20</title>
  <circle cx="1939.81289" cy="2295.32225" fill="#007f00" fill-opacity="0.2" id="svg_294" r="3.57987" stroke="#007f00"/>
  <circle cx="1965.48857" cy="2288.04574" fill="#007f00" fill-opacity="0.2" id="svg_295" r="2.37043" stroke="#007f00"/>
  <circle cx="1915.46667" cy="2300.13333" fill="#007f00" fill-opacity="0.2" id="svg_312" r="2.62555" stroke="#007f00"/>
 </g>
 <g class="layer" display="inline">
  <title>Row 21</title>
  <circle cx="1661.93029" cy="2337.80162" fill="#000000" fill-opacity="0" id="svg_268" r="9.08587" stroke="#000000"/>
 </g>
 <g class="layer" display="inline">
  <title>Line 22 faded</title>
  <circle cx="2109.57614" cy="2448.19466" fill="#ff56aa" fill-opacity="0.2" id="svg_301" r="2.11203" stroke="#ff56aa"/>
  <circle cx="2108.94819" cy="2454.4741" fill="#ff56aa" fill-opacity="0.2" id="svg_302" r="1.66878" stroke="#ff56aa"/>
  <circle cx="2108.82353" cy="2462.20588" fill="#ff56aa" fill-opacity="0.2" id="svg_303" r="1.71499" stroke="#ff56aa"/>
  <circle cx="2107.5" cy="2477.5" fill="#ff56aa" fill-opacity="0.2" id="svg_304" r="1.91741" stroke="#ff56aa"/>
  <circle cx="2107.64706" cy="2493.08824" fill="#ff56aa" fill-opacity="0.2" id="svg_305" r="1.56326" stroke="#ff56aa"/>
 </g>
 <g class="layer" display="inline">
  <title>Line 23 faded</title>
  <circle cx="2120.72214" cy="2455.573" fill="#7f7f00" fill-opacity="0.2" id="svg_296" r="1.89036" stroke="#7f7f00"/>
  <circle cx="2118.68132" cy="2469.38776" fill="#7f7f00" fill-opacity="0.2" id="svg_297" r="1.9981" stroke="#7f7f00"/>
  <circle cx="2117.42543" cy="2477.08006" fill="#7f7f00" fill-opacity="0.2" id="svg_298" r="2.68258" stroke="#7f7f00"/>
  <circle cx="2116.32653" cy="2483.04553" fill="#7f7f00" fill-opacity="0.2" id="svg_299" r="1.69079" stroke="#7f7f00"/>
  <circle cx="2117.11146" cy="2488.22606" fill="#7f7f00" fill-opacity="0.2" id="svg_300" r="2.2477" stroke="#7f7f00"/>
  <circle cx="2120.73529" cy="2463.08824" fill="#7f7f00" fill-opacity="0.2" id="svg_306" r="2.04301" stroke="#7f7f00"/>
 </g>
 <g class="layer">
  <title>Group 24 faded</title>
  <circle cx="1809.55882" cy="2416.91176" fill="#7f007f" fill-opacity="0.2" id="svg_307" r="3.22525" stroke="#7f007f"/>
  <circle cx="1803.67647" cy="2437.5" fill="#7f007f" fill-opacity="0.2" id="svg_308" r="2.91162" stroke="#7f007f"/>
  <circle cx="1798.38235" cy="2431.02941" fill="#7f007f" fill-opacity="0.2" id="svg_309" r="3.33405" stroke="#7f007f"/>
  <circle cx="1793.67647" cy="2444.41176" fill="#7f007f" fill-opacity="0.2" id="svg_310" r="3.4205" stroke="#7f007f"/>
  <circle cx="1796.17647" cy="2456.76471" fill="#7f007f" fill-opacity="0.2" id="svg_311" r="3.64101" stroke="#7f007f"/>
  <circle cx="1802.94118" cy="2466.61765" fill="#7f007f" fill-opacity="0.2" id="svg_313" r="3.26524" stroke="#7f007f"/>
  <circle cx="1814.70588" cy="2473.97059" fill="#7f007f" fill-opacity="0.2" id="svg_314" r="3.64101" stroke="#7f007f"/>
  <circle cx="1825.88235" cy="2480.44118" fill="#7f007f" fill-opacity="0.2" id="svg_315" r="3.58112" stroke="#7f007f"/>
  <circle cx="1840.29412" cy="2462.20588" fill="#7f007f" fill-opacity="0.2" id="svg_316" r="4.73566" stroke="#7f007f"/>
 </g>
 <g class="layer">
  <title>Line 25</title>
  <circle cx="1912.05882" cy="2487.05882" fill="#000000" fill-opacity="0" id="svg_317" r="2.71163" stroke="#000000"/>
 </g>
 <g class="layer">
  <title>Line 26</title>
  <circle cx="1889.70588" cy="2509.26471" fill="#000000" fill-opacity="0" id="svg_318" r="2.82491" stroke="#000000"/>
  <circle cx="1903.52941" cy="2507.05882" fill="#000000" fill-opacity="0" id="svg_319" r="2.94118" stroke="#000000"/>
  <circle cx="1920.29412" cy="2505" fill="#000000" fill-opacity="0" id="svg_320" r="3.26524" stroke="#000000"/>
  <circle cx="1931.32353" cy="2502.35294" fill="#000000" fill-opacity="0" id="svg_321" r="3.18137" stroke="#000000"/>
  <circle cx="1941.76471" cy="2500.58824" fill="#000000" fill-opacity="0" id="svg_322" r="2.82491" stroke="#000000"/>
  <circle cx="1952.35294" cy="2500.14706" fill="#000000" fill-opacity="0" id="svg_323" r="2.50432" stroke="#000000"/>
  <circle cx="1965.44118" cy="2501.02941" fill="#000000" fill-opacity="0" id="svg_324" r="2.7747" stroke="#000000"/>
  <circle cx="1975.44118" cy="2502.79412" fill="#000000" fill-opacity="0" id="svg_325" r="2.89672" stroke="#000000"/>
  <circle cx="1986.17647" cy="2503.52941" fill="#000000" fill-opacity="0" id="svg_326" r="2.57248" stroke="#000000"/>
  <circle cx="2001.32353" cy="2504.70588" fill="#000000" fill-opacity="0" id="svg_327" r="3.0601" stroke="#000000"/>
  <circle cx="2012.79412" cy="2505" fill="#000000" fill-opacity="0" id="svg_328" r="3.2286" stroke="#000000"/>
  <circle cx="2026.98531" cy="2499.04417" fill="#000000" fill-opacity="0" id="svg_329" r="2.74148" stroke="#000000"/>
  <circle cx="2039.26471" cy="2499.70588" fill="#000000" fill-opacity="0" id="svg_330" r="2.91903" stroke="#000000"/>
  <circle cx="2051.76471" cy="2499.85294" fill="#000000" fill-opacity="0" id="svg_331" r="2.20588" stroke="#000000"/>
  <circle cx="2063.82353" cy="2498.38235" fill="#000000" fill-opacity="0" id="svg_332" r="1.56326" stroke="#000000"/>
 </g>
</svg>